<svg xmlns="http://www.w3.org/2000/svg" width="1200" height="400" viewBox="0 0 1200 400">
  <defs>
    <linearGradient id="bg" x1="0" y1="0" x2="1" y2="1">
      <stop offset="0%" stop-color="#090b12" />
      <stop offset="100%" stop-color="#121624" />
    </linearGradient>
    <filter id="glow" x="-50%" y="-50%" width="200%" height="200%">
      <feGaussianBlur stdDeviation="3" result="blur" />
      <feMerge>
        <feMergeNode in="blur" />
        <feMergeNode in="SourceGraphic" />
      </feMerge>
    </filter>
  </defs>

  <rect width="1200" height="400" fill="url(#bg)" />
  <g><line x1="0" y1="0" x2="0" y2="400" stroke="#1d1d2a" stroke-width="1" /><line x1="80" y1="0" x2="80" y2="400" stroke="#1d1d2a" stroke-width="1" /><line x1="160" y1="0" x2="160" y2="400" stroke="#1d1d2a" stroke-width="1" /><line x1="240" y1="0" x2="240" y2="400" stroke="#1d1d2a" stroke-width="1" /><line x1="320" y1="0" x2="320" y2="400" stroke="#1d1d2a" stroke-width="1" /><line x1="400" y1="0" x2="400" y2="400" stroke="#1d1d2a" stroke-width="1" /><line x1="480" y1="0" x2="480" y2="400" stroke="#1d1d2a" stroke-width="1" /><line x1="560" y1="0" x2="560" y2="400" stroke="#1d1d2a" stroke-width="1" /><line x1="640" y1="0" x2="640" y2="400" stroke="#1d1d2a" stroke-width="1" /><line x1="720" y1="0" x2="720" y2="400" stroke="#1d1d2a" stroke-width="1" /><line x1="800" y1="0" x2="800" y2="400" stroke="#1d1d2a" stroke-width="1" /><line x1="880" y1="0" x2="880" y2="400" stroke="#1d1d2a" stroke-width="1" /><line x1="960" y1="0" x2="960" y2="400" stroke="#1d1d2a" stroke-width="1" /><line x1="1040" y1="0" x2="1040" y2="400" stroke="#1d1d2a" stroke-width="1" /><line x1="1120" y1="0" x2="1120" y2="400" stroke="#1d1d2a" stroke-width="1" /><line x1="1200" y1="0" x2="1200" y2="400" stroke="#1d1d2a" stroke-width="1" /><line x1="0" y1="0" x2="1200" y2="0" stroke="#1d1d2a" stroke-width="1" /><line x1="0" y1="80" x2="1200" y2="80" stroke="#1d1d2a" stroke-width="1" /><line x1="0" y1="160" x2="1200" y2="160" stroke="#1d1d2a" stroke-width="1" /><line x1="0" y1="240" x2="1200" y2="240" stroke="#1d1d2a" stroke-width="1" /><line x1="0" y1="320" x2="1200" y2="320" stroke="#1d1d2a" stroke-width="1" /><line x1="0" y1="400" x2="1200" y2="400" stroke="#1d1d2a" stroke-width="1" /></g>
  
      <g opacity="0.35">
        <circle cx="140" cy="80" r="8" fill="#8aff80" />
        <circle cx="1040" cy="120" r="6" fill="#8aff80" />
        <polygon points="980,290 1020,270 1060,290 1060,335 1020,355 980,335" fill="none" stroke="#8aff80" stroke-width="2" />
        <line x1="220" y1="300" x2="420" y2="230" stroke="#8aff80" stroke-width="2" />
      </g>
    

  <rect x="80" y="70" width="1040" height="260" rx="16" fill="rgba(0,0,0,0.24)" stroke="#22263a" />
  <text x="110" y="120" fill="#8aff80" font-size="20" font-family="'JetBrains Mono', 'SFMono-Regular', monospace" filter="url(#glow)">2026-04-06</text>
  <text x="110" y="195" fill="#ecf1ff" font-size="56" font-family="'Bebas Neue', 'Arial Narrow', sans-serif">SILICONSYNC</text>
  <text x="110" y="250" fill="#d4d9eb" font-size="34" font-family="'DM Sans', 'Segoe UI', sans-serif">AI's Geopolitical Chessboard, Legal Battles, Lunar Dreams</text>
</svg>
