<svg xmlns="http://www.w3.org/2000/svg" width="1200" height="400" viewBox="0 0 1200 400">
  <rect width="1200" height="400" fill="#0a0a0f" />
  <g stroke="#1e1e2e" stroke-width="1" opacity="0.7">
    <line x1="0" y1="80" x2="1200" y2="80" /><line x1="0" y1="160" x2="1200" y2="160" /><line x1="0" y1="240" x2="1200" y2="240" /><line x1="0" y1="320" x2="1200" y2="320" />
    <line x1="120" y1="0" x2="120" y2="400" /><line x1="240" y1="0" x2="240" y2="400" /><line x1="360" y1="0" x2="360" y2="400" /><line x1="480" y1="0" x2="480" y2="400" /><line x1="600" y1="0" x2="600" y2="400" /><line x1="720" y1="0" x2="720" y2="400" /><line x1="840" y1="0" x2="840" y2="400" /><line x1="960" y1="0" x2="960" y2="400" /><line x1="1080" y1="0" x2="1080" y2="400" />
  </g>
  <circle cx="1030" cy="95" r="8" fill="#ff6b35" />
  <line x1="250" y1="300" x2="450" y2="230" stroke="#ff6b35" stroke-width="2" />
  <rect x="90" y="70" width="1020" height="260" rx="16" fill="#12141f" stroke="#1e1e2e" />
  <text x="120" y="120" fill="#ff6b35" font-size="20" font-family="JetBrains Mono, monospace">2026-04-05</text>
  <text x="120" y="195" fill="#e8e8f0" font-size="58" font-family="Bebas Neue, Arial Narrow, sans-serif">SILICONSYNC</text>
  <text x="120" y="252" fill="#d8def0" font-size="34" font-family="DM Sans, Segoe UI, sans-serif">Quantum, Chips, and Startup Money Collide</text>
</svg>
